<?xml version="1.0" encoding="UTF-8" standalone="no"?>
<svg
   xmlns:dc="http://purl.org/dc/elements/1.1/"
   xmlns:cc="http://creativecommons.org/ns#"
   xmlns:rdf="http://www.w3.org/1999/02/22-rdf-syntax-ns#"
   xmlns:svg="http://www.w3.org/2000/svg"
   xmlns="http://www.w3.org/2000/svg"
   xmlns:sodipodi="http://sodipodi.sourceforge.net/DTD/sodipodi-0.dtd"
   xmlns:inkscape="http://www.inkscape.org/namespaces/inkscape"
   viewBox="0 0 373 373"
   width="308px"
   height="308px"
   version="1.1"
   id="svg17"
   sodipodi:docname="sour-cream.svg"
   inkscape:version="1.0.1 (3bc2e813f5, 2020-09-07)">
  <metadata
     id="metadata21">
    <rdf:RDF>
      <cc:Work
         rdf:about="">
        <dc:format>image/svg+xml</dc:format>
        <dc:type
           rdf:resource="http://purl.org/dc/dcmitype/StillImage" />
      </cc:Work>
    </rdf:RDF>
  </metadata>
  <sodipodi:namedview
     pagecolor="#ffffff"
     bordercolor="#666666"
     borderopacity="1"
     objecttolerance="10"
     gridtolerance="10"
     guidetolerance="10"
     inkscape:pageopacity="0"
     inkscape:pageshadow="2"
     inkscape:window-width="1600"
     inkscape:window-height="844"
     id="namedview19"
     showgrid="false"
     inkscape:zoom="2.1980519"
     inkscape:cx="154"
     inkscape:cy="154"
     inkscape:window-x="0"
     inkscape:window-y="28"
     inkscape:window-maximized="1"
     inkscape:current-layer="svg17" />
  <defs
     id="defs4">
    <style
       id="style2">.cls-1{fill:#fffbeb;}.cls-2{fill:#fff6a4;}.cls-3{opacity:0.05;}.cls-4{fill:#534741;}</style>
  </defs>
  <title
     id="title6">sour-cream</title>
  <circle
     id="Sour_cream"
     data-name="Sour cream"
     class="cls-1"
     cx="186.5"
     cy="186.5"
     r="186.5"
     style="fill:#fff3c8;fill-opacity:1" />
  <path
     class="cls-2"
     d="m 130.72,26.35 c 10.17,-3.7 28,-18 38.78,-19.19 10.78,-1.19 31.24,9.07 41.95,10.53 10.71,1.46 33.21,-3 43.26,1 10.05,4 23.45,22.58 32.29,28.85 8.84,6.27 30.77,12.81 37.83,21 7.06,8.19 10.25,30.88 15.17,40.53 4.92,9.65 21.29,25.64 23.73,36.18 2.44,10.54 -5.24,32.11 -5.4,42.92 -0.16,10.81 6.93,32.6 4.19,43.07 -2.74,10.47 -19.56,26 -24.72,35.5 -5.16,9.5 -9,32.08 -16.3,40.08 -7.3,8 -29.41,13.92 -38.39,19.94 -8.98,6.02 -22.92,24.24 -33.11,27.92 -10.19,3.68 -32.5,-1.34 -43.26,-0.18 -10.76,1.16 -31.53,10.81 -42.24,9.35 -10.71,-1.46 -28.17,-16.29 -38.23,-20.27 -10.06,-3.98 -32.94,-5.08 -41.75,-11.34 -8.81,-6.26 -17.37,-27.52 -24.43,-35.71 -7.06,-8.19 -26.8,-19.8 -31.69,-29.45 -4.89,-9.65 -2.59,-32.44 -5,-43 C 20.99,213.52 8.85,194.12 9,183.3 c 0.15,-10.82 12.78,-29.92 15.52,-40.39 2.74,-10.47 1.07,-33.3 6.23,-42.82 5.16,-9.52 25.25,-20.55 32.51,-28.55 7.26,-8 16.42,-29 25.41,-35 8.99,-6 31.88,-6.54 42.05,-10.19 z"
     id="path9" />
  <g
     class="cls-3"
     id="g13">
    <path
       class="cls-4"
       d="m 363.16,144.83 c -2.44,-10.54 -18.84,-26.53 -23.74,-36.18 -4.9,-9.65 -8.1,-32.32 -15.16,-40.52 -7.06,-8.2 -29,-14.74 -37.83,-21 -8.83,-6.26 -22.2,-24.86 -32.26,-28.83 -10.06,-3.97 -32.54,0.42 -43.26,-1 C 200.19,15.88 179.71,5.59 169,6.74 c -10.71,1.15 -28.61,15.5 -38.78,19.19 -10.17,3.69 -33.06,4.16 -42,10.18 -8.94,6.02 -18.13,27 -25.41,35 -7.28,8 -27.35,19 -32.5,28.56 -5.15,9.56 -3.61,32.33 -6.31,42.82 -2.7,10.49 -15.39,29.58 -15.54,40.39 -0.15,10.81 11.94,30.27 14.38,40.8 2.44,10.53 0.14,33.34 5,43 4.86,9.66 24.64,21.26 31.7,29.45 7.06,8.19 15.64,29.42 24.46,35.69 8.82,6.27 31.69,7.37 41.75,11.34 10.06,3.97 27.51,18.84 38.25,20.27 10.74,1.43 31.49,-8.2 42.25,-9.35 10.76,-1.15 33.1,3.87 43.25,0.18 10.15,-3.69 24.07,-21.9 33.06,-27.91 8.99,-6.01 31.12,-12 38.4,-20 7.28,-8 11.13,-30.58 16.29,-40.08 5.16,-9.5 22,-25 24.73,-35.5 2.73,-10.5 -4.34,-32.25 -4.19,-43.06 0.15,-10.81 7.81,-32.34 5.37,-42.88 z M 347,226.94 c -2.5,9.57 -17.9,23.78 -22.62,32.48 -4.72,8.7 -8.24,29.36 -14.91,36.68 -6.67,7.32 -26.91,12.74 -35.14,18.25 -8.23,5.51 -20.94,22.16 -30.25,25.54 -9.31,3.38 -29.74,-1.23 -39.58,-0.17 -9.84,1.06 -28.85,9.89 -38.65,8.56 -9.8,-1.33 -25.78,-14.91 -35,-18.55 -9.22,-3.64 -30.14,-4.64 -38.2,-10.38 -8.06,-5.74 -15.9,-25.17 -22.36,-32.67 -6.46,-7.5 -24.52,-18.12 -29,-26.94 -4.48,-8.82 -2.37,-29.69 -4.6,-39.33 -2.23,-9.64 -13.28,-27.41 -13.14,-37.34 0.14,-9.93 11.69,-27.38 14.19,-37 2.5,-9.62 1,-30.47 5.71,-39.17 4.71,-8.7 23.07,-18.77 29.74,-26.09 6.67,-7.32 15,-26.53 23.25,-32 8.25,-5.47 29.18,-5.93 38.48,-9.31 9.3,-3.38 25.64,-16.5 35.48,-17.61 9.84,-1.11 28.6,8.31 38.4,9.65 9.8,1.34 30.38,-2.71 39.58,0.93 9.2,3.64 21.45,20.64 29.52,26.38 8.07,5.74 28.15,11.72 34.61,19.22 6.46,7.5 9.41,28.25 13.88,37.08 4.47,8.83 19.48,23.46 21.72,33.1 2.24,9.64 -4.8,29.39 -4.94,39.28 -0.14,9.89 6.34,29.83 3.83,39.41 z"
       id="path11" />
  </g>
</svg>
